<mxfile host="app.diagrams.net" modified="2023-06-12T23:29:52.018Z" agent="Mozilla/5.0 (Windows NT 10.0; Win64; x64) AppleWebKit/537.36 (KHTML, like Gecko) Chrome/114.0.0.0 Safari/537.36" etag="t30nHVFoR5A7gg-tUIUS" version="21.3.8" type="device">
  <diagram name="Page-1" id="LXj68UqX_yYFFPxTWcXN">
    <mxGraphModel dx="1483" dy="1202" grid="1" gridSize="10" guides="1" tooltips="1" connect="1" arrows="1" fold="1" page="1" pageScale="1" pageWidth="850" pageHeight="1100" math="0" shadow="0">
      <root>
        <mxCell id="0" />
        <mxCell id="1" parent="0" />
        <mxCell id="WWvJN46keag4ZVaAy6GC-2" value="&lt;p style=&quot;margin:0px;margin-top:4px;text-align:center;&quot;&gt;&lt;b&gt;Entity&amp;nbsp;&lt;br&gt;&amp;lt;&amp;lt;abstract&amp;gt;&amp;gt;&lt;/b&gt;&lt;/p&gt;&lt;hr size=&quot;1&quot;&gt;&lt;p data-darkreader-inline-border=&quot;&quot; style=&quot;border-color: var(--border-color); margin: 0px 0px 0px 4px; --darkreader-inline-border: var(--darkreader-border--border-color);&quot;&gt;- id: String&lt;/p&gt;&lt;p data-darkreader-inline-border=&quot;&quot; style=&quot;border-color: var(--border-color); margin: 0px 0px 0px 4px; --darkreader-inline-border: var(--darkreader-border--border-color);&quot;&gt;- position: Point&lt;/p&gt;&lt;p data-darkreader-inline-border=&quot;&quot; style=&quot;border-color: var(--border-color); margin: 0px 0px 0px 4px; --darkreader-inline-border: var(--darkreader-border--border-color);&quot;&gt;- images: List&amp;lt;PImage&amp;gt;&lt;/p&gt;&lt;p data-darkreader-inline-border=&quot;&quot; style=&quot;border-color: var(--border-color); margin: 0px 0px 0px 4px; --darkreader-inline-border: var(--darkreader-border--border-color);&quot;&gt;- imageIndex: int&lt;/p&gt;&lt;hr size=&quot;1&quot;&gt;&lt;p style=&quot;margin:0px;margin-left:4px;&quot;&gt;+ log(): String&lt;/p&gt;&lt;p style=&quot;margin:0px;margin-left:4px;&quot;&gt;+ nextImage(): void&lt;/p&gt;&lt;p style=&quot;margin:0px;margin-left:4px;&quot;&gt;&lt;br&gt;&lt;/p&gt;&lt;p style=&quot;margin:0px;margin-left:4px;&quot;&gt;+ adjacent(): Point&lt;/p&gt;&lt;p style=&quot;border-color: var(--darkreader-border--border-color); margin: 0px 0px 0px 4px; --darkreader-inline-border: var(--darkreader-border--darkreader-border--border-color);&quot; data-darkreader-inline-border=&quot;&quot;&gt;+ getIntFromRange(): int&amp;nbsp;&lt;br style=&quot;border-color: var(--darkreader-border--border-color); --darkreader-inline-border: var(--darkreader-border--darkreader-border--border-color);&quot; data-darkreader-inline-border=&quot;&quot;&gt;&lt;/p&gt;&lt;p style=&quot;border-color: var(--darkreader-border--border-color); margin: 0px 0px 0px 4px; --darkreader-inline-border: var(--darkreader-border--darkreader-border--border-color);&quot; data-darkreader-inline-border=&quot;&quot;&gt;+ getNumFromRange(): double&lt;/p&gt;&lt;p style=&quot;border-color: var(--darkreader-border--border-color); margin: 0px 0px 0px 4px; --darkreader-inline-border: var(--darkreader-border--darkreader-border--border-color);&quot; data-darkreader-inline-border=&quot;&quot;&gt;&lt;br&gt;&lt;/p&gt;&lt;p style=&quot;border-color: var(--darkreader-border--border-color); margin: 0px 0px 0px 4px; --darkreader-inline-border: var(--darkreader-border--darkreader-border--border-color);&quot; data-darkreader-inline-border=&quot;&quot;&gt;&lt;br&gt;&lt;/p&gt;&lt;p style=&quot;border-color: var(--border-color); margin: 0px 0px 0px 4px; --darkreader-inline-border: var(--darkreader-border--border-color);&quot; data-darkreader-inline-border=&quot;&quot;&gt;&lt;span style=&quot;background-color: initial;&quot;&gt;+ getId(): String&lt;/span&gt;&lt;br&gt;&lt;/p&gt;&lt;p style=&quot;border-color: var(--border-color); margin: 0px 0px 0px 4px; --darkreader-inline-border: var(--darkreader-border--border-color);&quot; data-darkreader-inline-border=&quot;&quot;&gt;+ getPosition(): Point&lt;/p&gt;&lt;p style=&quot;border-color: var(--border-color); margin: 0px 0px 0px 4px; --darkreader-inline-border: var(--darkreader-border--border-color);&quot; data-darkreader-inline-border=&quot;&quot;&gt;+ setPosition(): void&lt;/p&gt;&lt;p style=&quot;border-color: var(--border-color); margin: 0px 0px 0px 4px; --darkreader-inline-border: var(--darkreader-border--border-color);&quot; data-darkreader-inline-border=&quot;&quot;&gt;+ getImages(): List&amp;lt;PImage&amp;gt;&lt;/p&gt;&lt;p style=&quot;border-color: var(--border-color); margin: 0px 0px 0px 4px; --darkreader-inline-border: var(--darkreader-border--border-color);&quot; data-darkreader-inline-border=&quot;&quot;&gt;+ getImageIndex(): int&lt;/p&gt;&lt;p style=&quot;border-color: var(--border-color); margin: 0px 0px 0px 4px; --darkreader-inline-border: var(--darkreader-border--border-color);&quot; data-darkreader-inline-border=&quot;&quot;&gt;&lt;br&gt;&lt;/p&gt;" style="verticalAlign=top;align=left;overflow=fill;fontSize=12;fontFamily=Helvetica;html=1;whiteSpace=wrap;" vertex="1" parent="1">
          <mxGeometry x="2410" y="20" width="200" height="305" as="geometry" />
        </mxCell>
        <mxCell id="WWvJN46keag4ZVaAy6GC-3" value="&lt;p style=&quot;margin:0px;margin-top:4px;text-align:center;&quot;&gt;&lt;b&gt;ExecuteEntity&lt;/b&gt;&lt;/p&gt;&lt;p style=&quot;margin:0px;margin-top:4px;text-align:center;&quot;&gt;&lt;b style=&quot;background-color: initial;&quot;&gt;&amp;lt;&amp;lt;interface&amp;gt;&amp;gt;&lt;/b&gt;&lt;br&gt;&lt;/p&gt;&lt;hr size=&quot;1&quot;&gt;&lt;p style=&quot;margin:0px;margin-left:4px;&quot;&gt;&lt;br&gt;&lt;/p&gt;&lt;hr size=&quot;1&quot;&gt;&lt;p style=&quot;border-color: var(--border-color); margin: 0px 0px 0px 4px; --darkreader-inline-border:var(--darkreader-border--border-color);&quot; data-darkreader-inline-border=&quot;&quot;&gt;+ executeActivity(): void&lt;/p&gt;" style="verticalAlign=top;align=left;overflow=fill;fontSize=12;fontFamily=Helvetica;html=1;whiteSpace=wrap;" vertex="1" parent="1">
          <mxGeometry x="2070" y="1070" width="265" height="90" as="geometry" />
        </mxCell>
        <mxCell id="WWvJN46keag4ZVaAy6GC-4" value="&lt;p style=&quot;margin:0px;margin-top:4px;text-align:center;&quot;&gt;&lt;b style=&quot;background-color: initial;&quot;&gt;TransformEntity&lt;/b&gt;&lt;/p&gt;&lt;p style=&quot;margin:0px;margin-top:4px;text-align:center;&quot;&gt;&lt;b style=&quot;background-color: initial;&quot;&gt;&amp;lt;&amp;lt;interface&amp;gt;&amp;gt;&lt;/b&gt;&lt;br&gt;&lt;/p&gt;&lt;hr size=&quot;1&quot;&gt;&lt;p style=&quot;margin:0px;margin-left:4px;&quot;&gt;&lt;br&gt;&lt;/p&gt;&lt;hr size=&quot;1&quot;&gt;&lt;p style=&quot;border-color: var(--border-color); margin: 0px 0px 0px 4px; --darkreader-inline-border:var(--darkreader-border--border-color);&quot; data-darkreader-inline-border=&quot;&quot;&gt;+ transform(): boolean&lt;/p&gt;" style="verticalAlign=top;align=left;overflow=fill;fontSize=12;fontFamily=Helvetica;html=1;whiteSpace=wrap;" vertex="1" parent="1">
          <mxGeometry x="2400" y="1070" width="265" height="90" as="geometry" />
        </mxCell>
        <mxCell id="WWvJN46keag4ZVaAy6GC-5" value="&lt;p style=&quot;margin:0px;margin-top:4px;text-align:center;&quot;&gt;&lt;b data-darkreader-inline-bgcolor=&quot;&quot; style=&quot;background-color: initial; --darkreader-inline-bgcolor: initial;&quot;&gt;MoveEntity&lt;/b&gt;&lt;/p&gt;&lt;p style=&quot;margin:0px;margin-top:4px;text-align:center;&quot;&gt;&lt;b data-darkreader-inline-bgcolor=&quot;&quot; style=&quot;background-color: initial; --darkreader-inline-bgcolor: initial;&quot;&gt;&amp;lt;&amp;lt;interface&amp;gt;&amp;gt;&lt;/b&gt;&lt;br&gt;&lt;/p&gt;&lt;hr size=&quot;1&quot;&gt;&lt;p style=&quot;margin:0px;margin-left:4px;&quot;&gt;&lt;br&gt;&lt;/p&gt;&lt;hr size=&quot;1&quot;&gt;&lt;p style=&quot;border-color: var(--border-color); margin: 0px 0px 0px 4px; --darkreader-inline-border: var(--darkreader-border--border-color);&quot; data-darkreader-inline-border=&quot;&quot;&gt;+ moveTo(): boolean&lt;/p&gt;&lt;p style=&quot;border-color: var(--border-color); margin: 0px 0px 0px 4px; --darkreader-inline-border: var(--darkreader-border--border-color);&quot; data-darkreader-inline-border=&quot;&quot;&gt;+ nextPosition(): Point&lt;/p&gt;&lt;p style=&quot;border-color: var(--border-color); margin: 0px 0px 0px 4px; --darkreader-inline-border: var(--darkreader-border--border-color);&quot; data-darkreader-inline-border=&quot;&quot;&gt;&lt;br&gt;&lt;/p&gt;" style="verticalAlign=top;align=left;overflow=fill;fontSize=12;fontFamily=Helvetica;html=1;whiteSpace=wrap;" vertex="1" parent="1">
          <mxGeometry x="2740" y="1070" width="265" height="110" as="geometry" />
        </mxCell>
        <mxCell id="WWvJN46keag4ZVaAy6GC-6" value="&lt;p style=&quot;margin:0px;margin-top:4px;text-align:center;&quot;&gt;&lt;b&gt;House&lt;/b&gt;&lt;/p&gt;&lt;hr size=&quot;1&quot;&gt;&lt;p style=&quot;margin:0px;margin-left:4px;&quot;&gt;&lt;br&gt;&lt;/p&gt;&lt;hr size=&quot;1&quot;&gt;&lt;p style=&quot;margin:0px;margin-left:4px;&quot;&gt;&lt;br&gt;&lt;/p&gt;" style="verticalAlign=top;align=left;overflow=fill;fontSize=12;fontFamily=Helvetica;html=1;whiteSpace=wrap;" vertex="1" parent="1">
          <mxGeometry x="2665" y="410" width="190" height="75" as="geometry" />
        </mxCell>
        <mxCell id="WWvJN46keag4ZVaAy6GC-7" value="Extends" style="endArrow=block;endSize=16;endFill=0;html=1;rounded=0;entryX=0.5;entryY=1;entryDx=0;entryDy=0;exitX=0.5;exitY=0;exitDx=0;exitDy=0;" edge="1" parent="1" source="WWvJN46keag4ZVaAy6GC-6" target="WWvJN46keag4ZVaAy6GC-2">
          <mxGeometry width="160" relative="1" as="geometry">
            <mxPoint x="1770" y="630" as="sourcePoint" />
            <mxPoint x="1930" y="630" as="targetPoint" />
          </mxGeometry>
        </mxCell>
        <mxCell id="WWvJN46keag4ZVaAy6GC-8" value="&lt;p style=&quot;margin:0px;margin-top:4px;text-align:center;&quot;&gt;&lt;b&gt;Dude_Full&lt;/b&gt;&lt;/p&gt;&lt;hr size=&quot;1&quot;&gt;&lt;p style=&quot;margin:0px;margin-left:4px;&quot;&gt;&lt;br&gt;&lt;/p&gt;&lt;hr size=&quot;1&quot;&gt;&lt;p style=&quot;margin:0px;margin-left:4px;&quot;&gt;+ transform(): boolean&lt;/p&gt;&lt;p style=&quot;margin:0px;margin-left:4px;&quot;&gt;+ executeActivity(): void&lt;/p&gt;&lt;p style=&quot;margin:0px;margin-left:4px;&quot;&gt;+ moveTo(): boolean&lt;/p&gt;&lt;p style=&quot;margin:0px;margin-left:4px;&quot;&gt;&lt;br&gt;&lt;/p&gt;" style="verticalAlign=top;align=left;overflow=fill;fontSize=12;fontFamily=Helvetica;html=1;whiteSpace=wrap;" vertex="1" parent="1">
          <mxGeometry x="2340" y="820" width="190" height="105" as="geometry" />
        </mxCell>
        <mxCell id="WWvJN46keag4ZVaAy6GC-9" value="" style="endArrow=block;dashed=1;endFill=0;endSize=12;html=1;rounded=0;entryX=0.5;entryY=0;entryDx=0;entryDy=0;exitX=0.5;exitY=1;exitDx=0;exitDy=0;" edge="1" parent="1" source="WWvJN46keag4ZVaAy6GC-28" target="WWvJN46keag4ZVaAy6GC-4">
          <mxGeometry width="160" relative="1" as="geometry">
            <mxPoint x="2012" y="900" as="sourcePoint" />
            <mxPoint x="1930" y="1235" as="targetPoint" />
          </mxGeometry>
        </mxCell>
        <mxCell id="WWvJN46keag4ZVaAy6GC-10" value="" style="endArrow=block;dashed=1;endFill=0;endSize=12;html=1;rounded=0;entryX=0.5;entryY=0;entryDx=0;entryDy=0;exitX=0.5;exitY=1;exitDx=0;exitDy=0;" edge="1" parent="1" source="WWvJN46keag4ZVaAy6GC-28" target="WWvJN46keag4ZVaAy6GC-5">
          <mxGeometry width="160" relative="1" as="geometry">
            <mxPoint x="2092" y="860" as="sourcePoint" />
            <mxPoint x="2010" y="1195" as="targetPoint" />
          </mxGeometry>
        </mxCell>
        <mxCell id="WWvJN46keag4ZVaAy6GC-11" value="Extends" style="endArrow=block;endSize=16;endFill=0;html=1;rounded=0;entryX=0.5;entryY=1;entryDx=0;entryDy=0;exitX=0.5;exitY=0;exitDx=0;exitDy=0;" edge="1" parent="1" source="WWvJN46keag4ZVaAy6GC-8" target="WWvJN46keag4ZVaAy6GC-28">
          <mxGeometry width="160" relative="1" as="geometry">
            <mxPoint x="2090" y="725" as="sourcePoint" />
            <mxPoint x="2515" y="540" as="targetPoint" />
          </mxGeometry>
        </mxCell>
        <mxCell id="WWvJN46keag4ZVaAy6GC-12" value="&lt;p style=&quot;margin:0px;margin-top:4px;text-align:center;&quot;&gt;&lt;b&gt;Dude_Not_Full&lt;/b&gt;&lt;/p&gt;&lt;hr size=&quot;1&quot;&gt;&lt;p style=&quot;margin:0px;margin-left:4px;&quot;&gt;&lt;br&gt;&lt;/p&gt;&lt;hr size=&quot;1&quot;&gt;&lt;p style=&quot;border-color: var(--border-color); margin: 0px 0px 0px 4px;&quot;&gt;+ transform(): boolean&lt;/p&gt;&lt;p style=&quot;border-color: var(--border-color); margin: 0px 0px 0px 4px;&quot;&gt;+ executeActivity(): void&lt;/p&gt;&lt;p style=&quot;border-color: var(--border-color); margin: 0px 0px 0px 4px;&quot;&gt;+ moveTo(): boolean&lt;/p&gt;" style="verticalAlign=top;align=left;overflow=fill;fontSize=12;fontFamily=Helvetica;html=1;whiteSpace=wrap;" vertex="1" parent="1">
          <mxGeometry x="2550" y="820" width="200" height="105" as="geometry" />
        </mxCell>
        <mxCell id="WWvJN46keag4ZVaAy6GC-13" value="Extends" style="endArrow=block;endSize=16;endFill=0;html=1;rounded=0;entryX=0.5;entryY=1;entryDx=0;entryDy=0;exitX=0.5;exitY=0;exitDx=0;exitDy=0;" edge="1" parent="1" source="WWvJN46keag4ZVaAy6GC-12" target="WWvJN46keag4ZVaAy6GC-28">
          <mxGeometry width="160" relative="1" as="geometry">
            <mxPoint x="2320" y="725" as="sourcePoint" />
            <mxPoint x="2515" y="540" as="targetPoint" />
          </mxGeometry>
        </mxCell>
        <mxCell id="WWvJN46keag4ZVaAy6GC-14" value="&lt;p style=&quot;margin:0px;margin-top:4px;text-align:center;&quot;&gt;&lt;b&gt;Obstacle&lt;/b&gt;&lt;/p&gt;&lt;hr size=&quot;1&quot;&gt;&lt;p style=&quot;margin:0px;margin-left:4px;&quot;&gt;&lt;br&gt;&lt;/p&gt;&lt;hr size=&quot;1&quot;&gt;&lt;p style=&quot;margin:0px;margin-left:4px;&quot;&gt;&lt;br&gt;&lt;/p&gt;&lt;p style=&quot;margin:0px;margin-left:4px;&quot;&gt;&lt;br&gt;&lt;/p&gt;" style="verticalAlign=top;align=left;overflow=fill;fontSize=12;fontFamily=Helvetica;html=1;whiteSpace=wrap;" vertex="1" parent="1">
          <mxGeometry x="2280" y="660" width="200" height="75" as="geometry" />
        </mxCell>
        <mxCell id="WWvJN46keag4ZVaAy6GC-15" value="Extends" style="endArrow=block;endSize=16;endFill=0;html=1;rounded=0;entryX=0.5;entryY=1;entryDx=0;entryDy=0;exitX=0.5;exitY=0;exitDx=0;exitDy=0;" edge="1" parent="1" source="WWvJN46keag4ZVaAy6GC-14" target="WWvJN46keag4ZVaAy6GC-30">
          <mxGeometry width="160" relative="1" as="geometry">
            <mxPoint x="2200" y="545" as="sourcePoint" />
            <mxPoint x="2150" y="360" as="targetPoint" />
          </mxGeometry>
        </mxCell>
        <mxCell id="WWvJN46keag4ZVaAy6GC-16" value="&lt;p style=&quot;margin:0px;margin-top:4px;text-align:center;&quot;&gt;&lt;b&gt;Fairy&lt;/b&gt;&lt;/p&gt;&lt;hr size=&quot;1&quot;&gt;&lt;p style=&quot;margin:0px;margin-left:4px;&quot;&gt;&lt;br&gt;&lt;/p&gt;&lt;hr size=&quot;1&quot;&gt;&lt;p style=&quot;margin:0px;margin-left:4px;&quot;&gt;+ executeActivity(): void&lt;/p&gt;&lt;p style=&quot;margin:0px;margin-left:4px;&quot;&gt;+ moveTo(): boolean&lt;/p&gt;&lt;p style=&quot;margin:0px;margin-left:4px;&quot;&gt;+ nextPosition(): Point&lt;/p&gt;&lt;p style=&quot;margin:0px;margin-left:4px;&quot;&gt;&lt;br&gt;&lt;/p&gt;" style="verticalAlign=top;align=left;overflow=fill;fontSize=12;fontFamily=Helvetica;html=1;whiteSpace=wrap;" vertex="1" parent="1">
          <mxGeometry x="2780" y="820" width="200" height="105" as="geometry" />
        </mxCell>
        <mxCell id="WWvJN46keag4ZVaAy6GC-17" value="Extends" style="endArrow=block;endSize=16;endFill=0;html=1;rounded=0;entryX=0.5;entryY=1;entryDx=0;entryDy=0;exitX=0.5;exitY=0;exitDx=0;exitDy=0;" edge="1" parent="1" source="WWvJN46keag4ZVaAy6GC-16" target="WWvJN46keag4ZVaAy6GC-30">
          <mxGeometry width="160" relative="1" as="geometry">
            <mxPoint x="2450" y="545" as="sourcePoint" />
            <mxPoint x="2150" y="360" as="targetPoint" />
          </mxGeometry>
        </mxCell>
        <mxCell id="WWvJN46keag4ZVaAy6GC-18" value="" style="endArrow=block;dashed=1;endFill=0;endSize=12;html=1;rounded=0;exitX=0.5;exitY=1;exitDx=0;exitDy=0;entryX=0.5;entryY=0;entryDx=0;entryDy=0;" edge="1" parent="1" source="WWvJN46keag4ZVaAy6GC-16" target="WWvJN46keag4ZVaAy6GC-3">
          <mxGeometry width="160" relative="1" as="geometry">
            <mxPoint x="2200" y="970" as="sourcePoint" />
            <mxPoint x="2693" y="1290" as="targetPoint" />
          </mxGeometry>
        </mxCell>
        <mxCell id="WWvJN46keag4ZVaAy6GC-19" value="" style="endArrow=block;dashed=1;endFill=0;endSize=12;html=1;rounded=0;exitX=0.5;exitY=1;exitDx=0;exitDy=0;entryX=0.5;entryY=0;entryDx=0;entryDy=0;" edge="1" parent="1" source="WWvJN46keag4ZVaAy6GC-16" target="WWvJN46keag4ZVaAy6GC-5">
          <mxGeometry width="160" relative="1" as="geometry">
            <mxPoint x="2470" y="1010" as="sourcePoint" />
            <mxPoint x="1723" y="1310" as="targetPoint" />
          </mxGeometry>
        </mxCell>
        <mxCell id="WWvJN46keag4ZVaAy6GC-20" value="&lt;p style=&quot;margin:0px;margin-top:4px;text-align:center;&quot;&gt;&lt;b&gt;Stump&lt;/b&gt;&lt;/p&gt;&lt;hr size=&quot;1&quot;&gt;&lt;p style=&quot;margin:0px;margin-left:4px;&quot;&gt;&lt;br&gt;&lt;/p&gt;&lt;hr size=&quot;1&quot;&gt;&lt;p style=&quot;margin:0px;margin-left:4px;&quot;&gt;&lt;br&gt;&lt;/p&gt;" style="verticalAlign=top;align=left;overflow=fill;fontSize=12;fontFamily=Helvetica;html=1;whiteSpace=wrap;" vertex="1" parent="1">
          <mxGeometry x="2160" y="410" width="200" height="85" as="geometry" />
        </mxCell>
        <mxCell id="WWvJN46keag4ZVaAy6GC-21" value="Extends" style="endArrow=block;endSize=16;endFill=0;html=1;rounded=0;entryX=0.5;entryY=1;entryDx=0;entryDy=0;exitX=0.5;exitY=0;exitDx=0;exitDy=0;" edge="1" parent="1" source="WWvJN46keag4ZVaAy6GC-20" target="WWvJN46keag4ZVaAy6GC-2">
          <mxGeometry width="160" relative="1" as="geometry">
            <mxPoint x="2760" y="645" as="sourcePoint" />
            <mxPoint x="2210" y="460" as="targetPoint" />
          </mxGeometry>
        </mxCell>
        <mxCell id="WWvJN46keag4ZVaAy6GC-22" value="&lt;p style=&quot;margin:0px;margin-top:4px;text-align:center;&quot;&gt;&lt;b&gt;Sapling&lt;/b&gt;&lt;/p&gt;&lt;hr size=&quot;1&quot;&gt;&lt;p style=&quot;margin:0px;margin-left:4px;&quot;&gt;+ SAPLING_ACTION_ANIMATION_PERIOD: double &amp;lt;&amp;lt;static&amp;gt;&amp;gt;&lt;/p&gt;&lt;p style=&quot;margin:0px;margin-left:4px;&quot;&gt;+ SAPLING_HEALTH_LIMIT: int &amp;lt;&amp;lt;static&amp;gt;&amp;gt;&lt;/p&gt;&lt;hr size=&quot;1&quot;&gt;&lt;p style=&quot;margin:0px;margin-left:4px;&quot;&gt;+ transform(): boolean&lt;/p&gt;&lt;p style=&quot;margin:0px;margin-left:4px;&quot;&gt;+ executeActivity(): void&lt;/p&gt;&lt;p data-darkreader-inline-border=&quot;&quot; style=&quot;border-color: var(--border-color); margin: 0px 0px 0px 4px; --darkreader-inline-border: var(--darkreader-border--border-color);&quot;&gt;&lt;br&gt;&lt;/p&gt;" style="verticalAlign=top;align=left;overflow=fill;fontSize=12;fontFamily=Helvetica;html=1;whiteSpace=wrap;" vertex="1" parent="1">
          <mxGeometry x="1630" y="1030" width="350" height="105" as="geometry" />
        </mxCell>
        <mxCell id="WWvJN46keag4ZVaAy6GC-23" value="Extends" style="endArrow=block;endSize=16;endFill=0;html=1;rounded=0;entryX=0.5;entryY=1;entryDx=0;entryDy=0;exitX=0.5;exitY=0;exitDx=0;exitDy=0;" edge="1" parent="1" source="WWvJN46keag4ZVaAy6GC-22" target="WWvJN46keag4ZVaAy6GC-32">
          <mxGeometry width="160" relative="1" as="geometry">
            <mxPoint x="2400" y="535" as="sourcePoint" />
            <mxPoint x="2150" y="355" as="targetPoint" />
          </mxGeometry>
        </mxCell>
        <mxCell id="WWvJN46keag4ZVaAy6GC-24" value="" style="endArrow=block;dashed=1;endFill=0;endSize=12;html=1;rounded=0;exitX=0.5;exitY=1;exitDx=0;exitDy=0;entryX=0.5;entryY=0;entryDx=0;entryDy=0;" edge="1" parent="1" source="WWvJN46keag4ZVaAy6GC-32" target="WWvJN46keag4ZVaAy6GC-3">
          <mxGeometry width="160" relative="1" as="geometry">
            <mxPoint x="2700" y="1000" as="sourcePoint" />
            <mxPoint x="2693" y="1290" as="targetPoint" />
          </mxGeometry>
        </mxCell>
        <mxCell id="WWvJN46keag4ZVaAy6GC-25" value="" style="endArrow=block;dashed=1;endFill=0;endSize=12;html=1;rounded=0;exitX=0.5;exitY=1;exitDx=0;exitDy=0;entryX=0.5;entryY=0;entryDx=0;entryDy=0;" edge="1" parent="1" source="WWvJN46keag4ZVaAy6GC-32" target="WWvJN46keag4ZVaAy6GC-4">
          <mxGeometry width="160" relative="1" as="geometry">
            <mxPoint x="2710" y="1010" as="sourcePoint" />
            <mxPoint x="2703" y="1300" as="targetPoint" />
          </mxGeometry>
        </mxCell>
        <mxCell id="WWvJN46keag4ZVaAy6GC-26" value="&lt;p style=&quot;margin:0px;margin-top:4px;text-align:center;&quot;&gt;&lt;b&gt;Tree&lt;/b&gt;&lt;/p&gt;&lt;hr size=&quot;1&quot;&gt;&lt;p style=&quot;margin:0px;margin-left:4px;&quot;&gt;+ TREE_ANIMATION_MAX: double &amp;lt;&amp;lt;static&amp;gt;&amp;gt;&lt;/p&gt;&lt;p style=&quot;margin:0px;margin-left:4px;&quot;&gt;+ TREE_ANIMATION_MIN: double &amp;lt;&amp;lt;static&amp;gt;&amp;gt;&lt;/p&gt;&lt;p style=&quot;margin:0px;margin-left:4px;&quot;&gt;+ TREE_ACTION_MAX: double &amp;lt;&amp;lt;static&amp;gt;&amp;gt;&lt;/p&gt;&lt;p style=&quot;margin:0px;margin-left:4px;&quot;&gt;+ TREE_ACTION_MIN: double &amp;lt;&amp;lt;static&amp;gt;&amp;gt;&lt;/p&gt;&lt;p style=&quot;margin:0px;margin-left:4px;&quot;&gt;+ TREE_HEALTH_MAX: int &amp;lt;&amp;lt;static&amp;gt;&amp;gt;&lt;/p&gt;&lt;p style=&quot;margin:0px;margin-left:4px;&quot;&gt;+ TREE_HEALTH_MIN: int &amp;lt;&amp;lt;static&amp;gt;&amp;gt;&lt;/p&gt;&lt;hr size=&quot;1&quot;&gt;&lt;p style=&quot;margin:0px;margin-left:4px;&quot;&gt;+ transform(): boolean&lt;/p&gt;&lt;p style=&quot;margin:0px;margin-left:4px;&quot;&gt;+ executeActivity(): void&lt;/p&gt;&lt;p data-darkreader-inline-border=&quot;&quot; style=&quot;border-color: var(--border-color); margin: 0px 0px 0px 4px; --darkreader-inline-border: var(--darkreader-border--border-color);&quot;&gt;&lt;br&gt;&lt;/p&gt;" style="verticalAlign=top;align=left;overflow=fill;fontSize=12;fontFamily=Helvetica;html=1;whiteSpace=wrap;" vertex="1" parent="1">
          <mxGeometry x="1580" y="855" width="260" height="165" as="geometry" />
        </mxCell>
        <mxCell id="WWvJN46keag4ZVaAy6GC-27" value="Extends" style="endArrow=block;endSize=16;endFill=0;html=1;rounded=0;entryX=0.5;entryY=1;entryDx=0;entryDy=0;exitX=0.5;exitY=0;exitDx=0;exitDy=0;" edge="1" parent="1" source="WWvJN46keag4ZVaAy6GC-26" target="WWvJN46keag4ZVaAy6GC-32">
          <mxGeometry width="160" relative="1" as="geometry">
            <mxPoint x="2650" y="535" as="sourcePoint" />
            <mxPoint x="2150" y="355" as="targetPoint" />
          </mxGeometry>
        </mxCell>
        <mxCell id="WWvJN46keag4ZVaAy6GC-28" value="&lt;p style=&quot;margin:0px;margin-top:4px;text-align:center;&quot;&gt;&lt;b&gt;Dude&lt;/b&gt;&lt;/p&gt;&lt;p style=&quot;margin:0px;margin-top:4px;text-align:center;&quot;&gt;&lt;b data-darkreader-inline-bgcolor=&quot;&quot; style=&quot;background-color: initial; --darkreader-inline-bgcolor: initial;&quot;&gt;&amp;lt;&amp;lt;abstract&amp;gt;&amp;gt;&lt;/b&gt;&lt;br&gt;&lt;/p&gt;&lt;hr size=&quot;1&quot;&gt;&lt;p style=&quot;margin:0px;margin-left:4px;&quot;&gt;- resourceLimit: int&lt;/p&gt;&lt;hr size=&quot;1&quot;&gt;&lt;p style=&quot;border-color: var(--border-color); margin: 0px 0px 0px 4px; --darkreader-inline-border: var(--darkreader-border--border-color);&quot; data-darkreader-inline-border=&quot;&quot;&gt;+ getResourceLimit(): int&lt;/p&gt;&lt;p style=&quot;border-color: var(--border-color); margin: 0px 0px 0px 4px; --darkreader-inline-border: var(--darkreader-border--border-color);&quot; data-darkreader-inline-border=&quot;&quot;&gt;+ nextPosition(): Point&lt;/p&gt;" style="verticalAlign=top;align=left;overflow=fill;fontSize=12;fontFamily=Helvetica;html=1;whiteSpace=wrap;" vertex="1" parent="1">
          <mxGeometry x="2060" y="660" width="175" height="110" as="geometry" />
        </mxCell>
        <mxCell id="WWvJN46keag4ZVaAy6GC-29" value="Extends" style="endArrow=block;endSize=16;endFill=0;html=1;rounded=0;entryX=0.5;entryY=1;entryDx=0;entryDy=0;exitX=0.5;exitY=0;exitDx=0;exitDy=0;" edge="1" parent="1" source="WWvJN46keag4ZVaAy6GC-28" target="WWvJN46keag4ZVaAy6GC-30">
          <mxGeometry width="160" relative="1" as="geometry">
            <mxPoint x="2177" y="500" as="sourcePoint" />
            <mxPoint x="2350" y="445" as="targetPoint" />
          </mxGeometry>
        </mxCell>
        <mxCell id="WWvJN46keag4ZVaAy6GC-30" value="&lt;p style=&quot;margin:0px;margin-top:4px;text-align:center;&quot;&gt;&lt;b&gt;Schedule&lt;/b&gt;&lt;b data-darkreader-inline-color=&quot;&quot; data-darkreader-inline-bgcolor=&quot;&quot; style=&quot;background-color: initial; color: rgb(0, 0, 0); --darkreader-inline-bgcolor: initial; --darkreader-inline-color: #e8e6e3;&quot;&gt;Entity&lt;/b&gt;&lt;/p&gt;&lt;p style=&quot;margin:0px;margin-top:4px;text-align:center;&quot;&gt;&lt;b data-darkreader-inline-bgcolor=&quot;&quot; style=&quot;background-color: initial; --darkreader-inline-bgcolor: initial;&quot;&gt;&amp;lt;&amp;lt;abstract&amp;gt;&amp;gt;&lt;/b&gt;&lt;br&gt;&lt;/p&gt;&lt;hr size=&quot;1&quot;&gt;&lt;p style=&quot;margin:0px;margin-left:4px;&quot;&gt;- actionPeriod: double&lt;/p&gt;&lt;p style=&quot;margin:0px;margin-left:4px;&quot;&gt;- animationPeriod: double&lt;/p&gt;&lt;hr size=&quot;1&quot;&gt;&lt;p style=&quot;border-color: var(--border-color); margin: 0px 0px 0px 4px; --darkreader-inline-border: var(--darkreader-border--border-color);&quot; data-darkreader-inline-border=&quot;&quot;&gt;+ scheduleActions(): void&lt;/p&gt;&lt;p style=&quot;border-color: var(--border-color); margin: 0px 0px 0px 4px; --darkreader-inline-border: var(--darkreader-border--border-color);&quot; data-darkreader-inline-border=&quot;&quot;&gt;&lt;br&gt;&lt;/p&gt;&lt;p style=&quot;border-color: var(--border-color); margin: 0px 0px 0px 4px; --darkreader-inline-border: var(--darkreader-border--border-color);&quot; data-darkreader-inline-border=&quot;&quot;&gt;+ getActionPeriod(): double&lt;/p&gt;&lt;p style=&quot;border-color: var(--border-color); margin: 0px 0px 0px 4px; --darkreader-inline-border: var(--darkreader-border--border-color);&quot; data-darkreader-inline-border=&quot;&quot;&gt;+ getAnimationPeriod(): double&lt;/p&gt;" style="verticalAlign=top;align=left;overflow=fill;fontSize=12;fontFamily=Helvetica;html=1;whiteSpace=wrap;" vertex="1" parent="1">
          <mxGeometry x="2375" y="410" width="265" height="160" as="geometry" />
        </mxCell>
        <mxCell id="WWvJN46keag4ZVaAy6GC-31" value="Extends" style="endArrow=block;endSize=16;endFill=0;html=1;rounded=0;entryX=0.5;entryY=1;entryDx=0;entryDy=0;exitX=0.5;exitY=0;exitDx=0;exitDy=0;" edge="1" parent="1" source="WWvJN46keag4ZVaAy6GC-30" target="WWvJN46keag4ZVaAy6GC-2">
          <mxGeometry width="160" relative="1" as="geometry">
            <mxPoint x="2480" y="560" as="sourcePoint" />
            <mxPoint x="2493" y="710" as="targetPoint" />
          </mxGeometry>
        </mxCell>
        <mxCell id="WWvJN46keag4ZVaAy6GC-32" value="&lt;p style=&quot;margin:0px;margin-top:4px;text-align:center;&quot;&gt;&lt;b&gt;Plant&lt;/b&gt;&lt;/p&gt;&lt;p style=&quot;margin:0px;margin-top:4px;text-align:center;&quot;&gt;&lt;b data-darkreader-inline-bgcolor=&quot;&quot; style=&quot;background-color: initial; --darkreader-inline-bgcolor: initial;&quot;&gt;&amp;lt;&amp;lt;abstract&amp;gt;&amp;gt;&lt;/b&gt;&lt;br&gt;&lt;/p&gt;&lt;hr size=&quot;1&quot;&gt;&lt;p style=&quot;margin:0px;margin-left:4px;&quot;&gt;- health: int&lt;/p&gt;&lt;hr size=&quot;1&quot;&gt;&lt;p style=&quot;border-color: var(--border-color); margin: 0px 0px 0px 4px; --darkreader-inline-border: var(--darkreader-border--border-color);&quot; data-darkreader-inline-border=&quot;&quot;&gt;+ increaseHealth(): void&lt;/p&gt;&lt;p style=&quot;border-color: var(--border-color); margin: 0px 0px 0px 4px; --darkreader-inline-border: var(--darkreader-border--border-color);&quot; data-darkreader-inline-border=&quot;&quot;&gt;+ decreaseHealth(): void&lt;/p&gt;&lt;p style=&quot;border-color: var(--border-color); margin: 0px 0px 0px 4px; --darkreader-inline-border: var(--darkreader-border--border-color);&quot; data-darkreader-inline-border=&quot;&quot;&gt;+ getHealth(): int&lt;/p&gt;&lt;p style=&quot;border-color: var(--border-color); margin: 0px 0px 0px 4px; --darkreader-inline-border: var(--darkreader-border--border-color);&quot; data-darkreader-inline-border=&quot;&quot;&gt;&lt;br data-darkreader-inline-border=&quot;&quot; style=&quot;border-color: var(--border-color); --darkreader-inline-border: var(--darkreader-border--border-color);&quot;&gt;&lt;/p&gt;" style="verticalAlign=top;align=left;overflow=fill;fontSize=12;fontFamily=Helvetica;html=1;whiteSpace=wrap;" vertex="1" parent="1">
          <mxGeometry x="1840" y="660" width="175" height="125" as="geometry" />
        </mxCell>
        <mxCell id="WWvJN46keag4ZVaAy6GC-33" value="Extends" style="endArrow=block;endSize=16;endFill=0;html=1;rounded=0;entryX=0.5;entryY=1;entryDx=0;entryDy=0;exitX=0.5;exitY=0;exitDx=0;exitDy=0;" edge="1" parent="1" source="WWvJN46keag4ZVaAy6GC-32" target="WWvJN46keag4ZVaAy6GC-30">
          <mxGeometry width="160" relative="1" as="geometry">
            <mxPoint x="2020" y="875" as="sourcePoint" />
            <mxPoint x="2318" y="800" as="targetPoint" />
          </mxGeometry>
        </mxCell>
        <mxCell id="WWvJN46keag4ZVaAy6GC-34" value="" style="endArrow=block;dashed=1;endFill=0;endSize=12;html=1;rounded=0;exitX=0.5;exitY=1;exitDx=0;exitDy=0;entryX=0.5;entryY=0;entryDx=0;entryDy=0;" edge="1" parent="1" source="WWvJN46keag4ZVaAy6GC-28" target="WWvJN46keag4ZVaAy6GC-3">
          <mxGeometry width="160" relative="1" as="geometry">
            <mxPoint x="2503" y="800" as="sourcePoint" />
            <mxPoint x="2370" y="1300" as="targetPoint" />
          </mxGeometry>
        </mxCell>
        <mxCell id="WWvJN46keag4ZVaAy6GC-35" value="&lt;p style=&quot;margin:0px;margin-top:4px;text-align:center;&quot;&gt;&lt;b&gt;Basil&lt;/b&gt;&lt;/p&gt;&lt;hr size=&quot;1&quot;&gt;&lt;p style=&quot;margin:0px;margin-left:4px;&quot;&gt;- previousTarget: Entity&lt;/p&gt;&lt;p style=&quot;margin:0px;margin-left:4px;&quot;&gt;- target: Entity&lt;/p&gt;&lt;p style=&quot;margin:0px;margin-left:4px;&quot;&gt;- redhand: Redhand&lt;/p&gt;&lt;hr size=&quot;1&quot;&gt;&lt;p style=&quot;margin:0px;margin-left:4px;&quot;&gt;+ acquireTarget(): Entity&lt;br&gt;+ transform(): boolean&lt;/p&gt;&lt;p style=&quot;margin:0px;margin-left:4px;&quot;&gt;+ executeActivity(): void&lt;/p&gt;&lt;p style=&quot;margin:0px;margin-left:4px;&quot;&gt;+ moveTo(): boolean&lt;/p&gt;&lt;p style=&quot;margin:0px;margin-left:4px;&quot;&gt;+ nextPosition(): Point&lt;/p&gt;&lt;p style=&quot;margin:0px;margin-left:4px;&quot;&gt;&lt;br&gt;&lt;/p&gt;&lt;p data-darkreader-inline-border=&quot;&quot; style=&quot;border-color: var(--border-color); margin: 0px 0px 0px 4px; --darkreader-inline-border: var(--darkreader-border--border-color);&quot;&gt;&lt;br&gt;&lt;/p&gt;" style="verticalAlign=top;align=left;overflow=fill;fontSize=12;fontFamily=Helvetica;html=1;whiteSpace=wrap;" vertex="1" parent="1">
          <mxGeometry x="1855" y="855" width="160" height="170" as="geometry" />
        </mxCell>
        <mxCell id="WWvJN46keag4ZVaAy6GC-36" value="Extends" style="endArrow=block;endSize=16;endFill=0;html=1;rounded=0;entryX=0.5;entryY=1;entryDx=0;entryDy=0;exitX=0.5;exitY=0;exitDx=0;exitDy=0;" edge="1" parent="1" source="WWvJN46keag4ZVaAy6GC-35" target="WWvJN46keag4ZVaAy6GC-32">
          <mxGeometry width="160" relative="1" as="geometry">
            <mxPoint x="1735" y="1050" as="sourcePoint" />
            <mxPoint x="2068" y="810" as="targetPoint" />
          </mxGeometry>
        </mxCell>
        <mxCell id="WWvJN46keag4ZVaAy6GC-37" value="" style="endArrow=block;dashed=1;endFill=0;endSize=12;html=1;rounded=0;entryX=0.5;entryY=0;entryDx=0;entryDy=0;exitX=1;exitY=0.5;exitDx=0;exitDy=0;" edge="1" parent="1" source="WWvJN46keag4ZVaAy6GC-35">
          <mxGeometry width="160" relative="1" as="geometry">
            <mxPoint x="2433" y="795" as="sourcePoint" />
            <mxPoint x="2883" y="1080" as="targetPoint" />
          </mxGeometry>
        </mxCell>
        <mxCell id="WWvJN46keag4ZVaAy6GC-38" value="&lt;p style=&quot;margin:0px;margin-top:4px;text-align:center;&quot;&gt;&lt;b&gt;Bunny&lt;/b&gt;&lt;/p&gt;&lt;hr size=&quot;1&quot;&gt;&lt;p style=&quot;margin:0px;margin-left:4px;&quot;&gt;&lt;br&gt;&lt;/p&gt;&lt;hr size=&quot;1&quot;&gt;&lt;p style=&quot;margin:0px;margin-left:4px;&quot;&gt;+ executeActivity(): void&lt;/p&gt;&lt;p style=&quot;margin:0px;margin-left:4px;&quot;&gt;+ moveTo(): boolean&lt;/p&gt;&lt;p style=&quot;margin:0px;margin-left:4px;&quot;&gt;+ nextPosition(): Point&lt;/p&gt;&lt;p style=&quot;margin:0px;margin-left:4px;&quot;&gt;&lt;br&gt;&lt;/p&gt;" style="verticalAlign=top;align=left;overflow=fill;fontSize=12;fontFamily=Helvetica;html=1;whiteSpace=wrap;" vertex="1" parent="1">
          <mxGeometry x="3020" y="820" width="200" height="105" as="geometry" />
        </mxCell>
        <mxCell id="WWvJN46keag4ZVaAy6GC-39" value="Extends" style="endArrow=block;endSize=16;endFill=0;html=1;rounded=0;entryX=0.5;entryY=1;entryDx=0;entryDy=0;exitX=0.5;exitY=0;exitDx=0;exitDy=0;" edge="1" parent="1" source="WWvJN46keag4ZVaAy6GC-38" target="WWvJN46keag4ZVaAy6GC-30">
          <mxGeometry width="160" relative="1" as="geometry">
            <mxPoint x="3480" y="875" as="sourcePoint" />
            <mxPoint x="2833" y="590" as="targetPoint" />
          </mxGeometry>
        </mxCell>
        <mxCell id="WWvJN46keag4ZVaAy6GC-40" value="" style="endArrow=block;dashed=1;endFill=0;endSize=12;html=1;rounded=0;exitX=0.5;exitY=1;exitDx=0;exitDy=0;" edge="1" parent="1" source="WWvJN46keag4ZVaAy6GC-38">
          <mxGeometry width="160" relative="1" as="geometry">
            <mxPoint x="3180" y="970" as="sourcePoint" />
            <mxPoint x="2880" y="1070" as="targetPoint" />
          </mxGeometry>
        </mxCell>
        <mxCell id="WWvJN46keag4ZVaAy6GC-41" value="" style="endArrow=block;dashed=1;endFill=0;endSize=12;html=1;rounded=0;exitX=0.5;exitY=1;exitDx=0;exitDy=0;" edge="1" parent="1" source="WWvJN46keag4ZVaAy6GC-38">
          <mxGeometry width="160" relative="1" as="geometry">
            <mxPoint x="3180" y="970" as="sourcePoint" />
            <mxPoint x="2210" y="1070" as="targetPoint" />
          </mxGeometry>
        </mxCell>
        <mxCell id="WWvJN46keag4ZVaAy6GC-42" value="&lt;p style=&quot;margin:0px;margin-top:4px;text-align:center;&quot;&gt;&lt;b&gt;Watermelon&lt;/b&gt;&lt;/p&gt;&lt;hr size=&quot;1&quot;&gt;&lt;p style=&quot;margin:0px;margin-left:4px;&quot;&gt;&lt;br&gt;&lt;/p&gt;&lt;hr size=&quot;1&quot;&gt;&lt;p style=&quot;margin:0px;margin-left:4px;&quot;&gt;+ nextImage(): void&lt;/p&gt;&lt;p style=&quot;margin:0px;margin-left:4px;&quot;&gt;&lt;br&gt;&lt;/p&gt;" style="verticalAlign=top;align=left;overflow=fill;fontSize=12;fontFamily=Helvetica;html=1;whiteSpace=wrap;" vertex="1" parent="1">
          <mxGeometry x="2500" y="660" width="200" height="75" as="geometry" />
        </mxCell>
        <mxCell id="WWvJN46keag4ZVaAy6GC-43" value="Extends" style="endArrow=block;endSize=16;endFill=0;html=1;rounded=0;entryX=0.5;entryY=1;entryDx=0;entryDy=0;exitX=0.5;exitY=0;exitDx=0;exitDy=0;" edge="1" parent="1" source="WWvJN46keag4ZVaAy6GC-42" target="WWvJN46keag4ZVaAy6GC-30">
          <mxGeometry width="160" relative="1" as="geometry">
            <mxPoint x="3560" y="840" as="sourcePoint" />
            <mxPoint x="2833" y="590" as="targetPoint" />
          </mxGeometry>
        </mxCell>
        <mxCell id="WWvJN46keag4ZVaAy6GC-44" value="&lt;p style=&quot;margin:0px;margin-top:4px;text-align:center;&quot;&gt;&lt;b&gt;Redhand&lt;/b&gt;&lt;/p&gt;&lt;hr size=&quot;1&quot;&gt;&lt;p style=&quot;margin:0px;margin-left:4px;&quot;&gt;&lt;br&gt;&lt;/p&gt;&lt;hr size=&quot;1&quot;&gt;&lt;p style=&quot;margin:0px;margin-left:4px;&quot;&gt;+ getExists(): boolean&lt;/p&gt;&lt;p style=&quot;margin:0px;margin-left:4px;&quot;&gt;+ setExists(): void&lt;/p&gt;&lt;p style=&quot;margin:0px;margin-left:4px;&quot;&gt;+ executeActivity(): void&lt;/p&gt;&lt;p style=&quot;margin:0px;margin-left:4px;&quot;&gt;+ moveTo(): boolean&lt;/p&gt;&lt;p style=&quot;margin:0px;margin-left:4px;&quot;&gt;+ nextPosition(): Point&lt;/p&gt;&lt;p style=&quot;margin:0px;margin-left:4px;&quot;&gt;&lt;br&gt;&lt;/p&gt;" style="verticalAlign=top;align=left;overflow=fill;fontSize=12;fontFamily=Helvetica;html=1;whiteSpace=wrap;" vertex="1" parent="1">
          <mxGeometry x="3260" y="820" width="200" height="130" as="geometry" />
        </mxCell>
        <mxCell id="WWvJN46keag4ZVaAy6GC-45" value="" style="endArrow=block;dashed=1;endFill=0;endSize=12;html=1;rounded=0;exitX=0.5;exitY=1;exitDx=0;exitDy=0;" edge="1" parent="1" source="WWvJN46keag4ZVaAy6GC-44">
          <mxGeometry width="160" relative="1" as="geometry">
            <mxPoint x="3260" y="935" as="sourcePoint" />
            <mxPoint x="2880" y="1070" as="targetPoint" />
          </mxGeometry>
        </mxCell>
        <mxCell id="WWvJN46keag4ZVaAy6GC-46" value="" style="endArrow=block;dashed=1;endFill=0;endSize=12;html=1;rounded=0;exitX=0.5;exitY=1;exitDx=0;exitDy=0;" edge="1" parent="1" source="WWvJN46keag4ZVaAy6GC-44">
          <mxGeometry width="160" relative="1" as="geometry">
            <mxPoint x="3260" y="935" as="sourcePoint" />
            <mxPoint x="2200" y="1070" as="targetPoint" />
          </mxGeometry>
        </mxCell>
        <mxCell id="WWvJN46keag4ZVaAy6GC-47" value="Extends" style="endArrow=block;endSize=16;endFill=0;html=1;rounded=0;entryX=0.5;entryY=1;entryDx=0;entryDy=0;exitX=0.5;exitY=0;exitDx=0;exitDy=0;" edge="1" parent="1" source="WWvJN46keag4ZVaAy6GC-44" target="WWvJN46keag4ZVaAy6GC-30">
          <mxGeometry width="160" relative="1" as="geometry">
            <mxPoint x="3560" y="840" as="sourcePoint" />
            <mxPoint x="2833" y="590" as="targetPoint" />
          </mxGeometry>
        </mxCell>
      </root>
    </mxGraphModel>
  </diagram>
</mxfile>
